HIERARCHY
ROOT hip
{
	OFFSET 0.000000 0.000000 0.000000
	CHANNELS 6 Xposition Yposition Zposition Xrotation Zrotation Yrotation 
	JOINT abdomen
	{
		OFFSET 0.000000 3.422050 0.000000
		CHANNELS 3 Xrotation Zrotation Yrotation 
		JOINT chest
		{
			OFFSET 0.000000 8.486693 -0.684411
			CHANNELS 3 Xrotation Zrotation Yrotation 
			JOINT neck
			{
				OFFSET 0.000000 10.266162 -0.273764
				CHANNELS 3 Xrotation Zrotation Yrotation 
				JOINT head
				{
					OFFSET 0.000000 3.148285 0.000000
					CHANNELS 3 Xrotation Zrotation Yrotation 
					End Site
					{
						OFFSET 0.000000 3.148289 0.000000
					}
				}
			}
			JOINT lCollar
			{
				OFFSET 3.422053 6.707223 -0.821293
				CHANNELS 3 Yrotation Zrotation Xrotation 
				JOINT lShldr
				{
					OFFSET 3.285171 0.000000 0.000000
					CHANNELS 3 Zrotation Yrotation Xrotation 
					JOINT lForeArm
					{
						OFFSET 10.129278 0.000000 0.000000
						CHANNELS 3 Yrotation Zrotation Xrotation 
						JOINT lHand
						{
							OFFSET 8.486692 0.000000 0.000000
							CHANNELS 3 Zrotation Yrotation Xrotation 
							End Site
							{
								OFFSET 4.106464 0.000000 0.000000
							}
						}
					}
				}
			}
			JOINT rCollar
			{
				OFFSET -3.558935 6.707223 -0.821293
				CHANNELS 3 Yrotation Zrotation Xrotation 
				JOINT rShldr
				{
					OFFSET -3.148289 0.000000 0.000000
					CHANNELS 3 Zrotation Yrotation Xrotation 
					JOINT rForeArm
					{
						OFFSET -10.266159 0.000000 0.000000
						CHANNELS 3 Yrotation Zrotation Xrotation 
						JOINT rHand
						{
							OFFSET -8.349810 0.000000 0.000000
							CHANNELS 3 Zrotation Yrotation Xrotation 
							End Site
							{
								OFFSET -4.106464 0.000000 0.000000
							}
						}
					}
				}
			}
		}
	}
	JOINT lThigh
	{
		OFFSET 5.338403 -1.642589 1.368821
		CHANNELS 3 Xrotation Zrotation Yrotation 
		JOINT lShin
		{
			OFFSET -2.053232 -20.121670 0.000000
			CHANNELS 3 Xrotation Zrotation Yrotation 
			JOINT lFoot
			{
				OFFSET 0.000000 -19.300380 -1.231939
				CHANNELS 3 Xrotation Yrotation Zrotation 
				End Site
				{
					OFFSET 0.000000 -2.463878 4.653993
				}
			}
		}
	}
	JOINT rThigh
	{
		OFFSET -5.338403 -1.642589 1.368821
		CHANNELS 3 Xrotation Zrotation Yrotation 
		JOINT rShin
		{
			OFFSET 2.053232 -20.121670 0.000000
			CHANNELS 3 Xrotation Zrotation Yrotation 
			JOINT rFoot
			{
				OFFSET 0.000000 -19.300380 -1.231939
				CHANNELS 3 Xrotation Yrotation Zrotation 
				End Site
				{
					OFFSET 0.000000 -2.463878 4.653993
				}
			}
		}
	}
}
MOTION
Frames: 8
Frame Time: 0.033264
0.723888 43.147030 34.162586 2.924148 0.000000 180.000000 2.846521 -0.455366 -0.327903 28.196928 -0.289119 -1.582506 -27.940847 6.324401 0.168915 -15.045819 0.000000 0.000000 -23.098572 -7.181356 -2.117273 -58.785839 -17.426647 -3.216764 -48.072975 -16.962847 4.146423 1.225630 1.527094 -0.586121 25.174026 9.018920 -3.026117 60.852764 15.836577 -1.898983 48.724838 17.280066 3.901300 -3.992119 -4.044400 0.589989 -9.633026 10.506232 8.564786 29.065331 -0.588925 -0.508523 -10.695655 6.964340 -15.042828 -9.780791 -7.307841 -6.802264 29.252983 0.530267 0.523306 -10.322780 -10.819292 12.860346 
0.723888 43.147030 34.196678 2.347263 0.000000 180.000000 2.846521 -0.455366 -0.327903 27.720890 -0.289048 -1.582505 -27.801445 6.293408 0.175755 -15.266467 0.000000 0.000000 -22.944420 -7.144417 -1.944030 -58.882664 -17.347227 -3.152750 -48.462631 -17.114286 4.019134 1.503715 1.466242 -0.372700 25.024212 8.996674 -2.848001 60.852764 15.836577 -1.898983 49.095619 17.422497 3.778932 -4.261957 -3.942487 0.790431 -10.366433 10.528660 8.623520 29.065331 -0.588925 -0.508523 -10.695655 6.964340 -15.042828 -10.501168 -7.364174 -6.997592 29.252983 0.530267 0.523306 -10.348709 -10.608386 12.857284 
0.723888 43.147030 34.230770 1.770434 0.000000 180.000000 2.846521 -0.455366 -0.327903 27.244883 -0.288977 -1.582504 -27.662016 6.262390 0.182521 -15.487103 0.000000 0.000000 -22.790398 -7.107015 -1.770905 -58.979332 -17.267700 -3.088907 -48.852928 -17.264887 3.890674 1.781552 1.404358 -0.159592 24.874487 8.973970 -2.669959 60.852764 15.836577 -1.898983 49.466988 17.564159 3.655512 -4.531393 -3.839638 0.990358 -11.099745 10.551822 8.681951 29.065331 -0.588925 -0.508523 -10.695655 6.964340 -15.042828 -11.221310 -7.422927 -7.192180 29.252983 0.530267 0.523306 -10.374610 -10.397482 12.854319 
0.723888 43.147030 34.264862 1.193690 0.000000 180.000000 2.846521 -0.455366 -0.327903 26.768925 -0.288906 -1.582504 -27.522554 6.231347 0.189212 -15.707721 0.000000 0.000000 -22.636509 -7.069155 -1.597900 -59.075878 -17.188076 -3.025230 -49.243881 -17.414635 3.761043 2.059135 1.341446 0.053197 24.724844 8.950808 -2.491992 60.852764 15.836577 -1.898983 49.838947 17.705051 3.531041 -4.800421 -3.735857 1.189764 -11.832904 10.575711 8.740065 29.065331 -0.588925 -0.508523 -10.695655 6.964340 -15.042828 -11.941148 -7.484083 -7.385981 29.252983 0.530267 0.523306 -10.400478 -10.186579 12.851452 
0.723888 43.147030 34.298954 0.617062 0.000000 180.000000 2.846521 -0.455366 -0.327903 26.293028 -0.288835 -1.582505 -27.383081 6.200281 0.195828 -15.928321 0.000000 0.000000 -22.482754 -7.030834 -1.425018 -59.172295 -17.108351 -2.961722 -49.635464 -17.563520 3.630253 2.336453 1.277508 0.265657 24.575283 8.927184 -2.314103 60.852764 15.836577 -1.898983 50.211479 17.845154 3.405524 -5.069036 -3.631153 1.388642 -12.565845 10.600320 8.797847 29.065331 -0.588925 -0.508523 -10.695655 6.964340 -15.042828 -12.660617 -7.547626 -7.578950 29.252983 0.530267 0.523306 -10.426320 -9.975682 12.848684 
0.723888 43.147030 34.333046 0.040578 0.000000 180.000000 2.846521 -0.455366 -0.327903 25.817223 -0.288765 -1.582506 -27.243578 6.169188 0.202370 -16.148914 0.000000 0.000000 -22.329130 -6.992054 -1.252260 -59.268559 -17.028521 -2.898382 -50.027683 -17.711535 3.498305 2.613500 1.212551 0.477779 24.425816 8.903105 -2.136295 60.852764 15.836577 -1.898983 50.584595 17.984465 3.278969 -5.337232 -3.525529 1.586985 -13.298509 10.625641 8.855287 29.065331 -0.588925 -0.508523 -10.695655 6.964340 -15.042828 -13.379646 -7.613534 -7.771040 29.252983 0.530267 0.523306 -10.452133 -9.764789 12.846013 
0.723888 43.147030 34.367138 -0.535734 -0.000000 180.000000 2.846521 -0.455366 -0.327903 25.341511 -0.288694 -1.582508 -27.104050 6.138075 0.208836 -16.369474 0.000000 0.000000 -22.175644 -6.952816 -1.079629 -59.364704 -16.948595 -2.835211 -50.420525 -17.858658 3.365207 2.890268 1.146577 0.689556 24.276443 8.878570 -1.958571 60.852764 15.836577 -1.898983 50.958271 18.122963 3.151377 -5.605000 -3.418991 1.784789 -14.030835 10.651670 8.912366 29.065331 -0.588925 -0.508523 -10.695655 6.964340 -15.042828 -14.098173 -7.681791 -7.962209 29.252983 0.530267 0.523306 -10.477922 -9.553907 12.843446 
0.723888 43.147030 34.401230 -1.111844 -0.000000 180.000000 2.846521 -0.455366 -0.327903 24.865908 -0.288623 -1.582510 -26.964489 6.106935 0.215228 -16.590015 0.000000 0.000000 -22.022299 -6.913122 -0.907129 -59.460705 -16.868567 -2.772209 -50.813961 -18.004881 3.230963 3.166746 1.079589 0.900979 24.127163 8.853579 -1.780932 60.852764 15.836577 -1.898983 51.332508 18.260647 3.022756 -5.872334 -3.311545 1.982044 -14.762766 10.678397 8.969074 29.065331 -0.588925 -0.508523 -10.695655 6.964340 -15.042828 -14.816127 -7.752371 -8.152409 29.252983 0.530267 0.523306 -10.503680 -9.343030 12.840968 
